<?xml version="1.0" encoding="UTF-8"?>
<svg width="233px" height="87px" viewBox="0 0 233 87" version="1.1" xmlns="http://www.w3.org/2000/svg" xmlns:xlink="http://www.w3.org/1999/xlink">
    <!-- Generator: Sketch 62 (91390) - https://sketch.com -->
    <title>Fichier 1@3x</title>
    <desc>Created with Sketch.</desc>
    <g id="Page-1" stroke="none" stroke-width="1" fill="none" fill-rule="evenodd">
        <g id="PEV---1-col" transform="translate(-90.000000, -181.000000)" fill-rule="nonzero">
            <g id="Hero" transform="translate(0.000000, 74.000000)">
                <g id="Fichier-1@3x" transform="translate(90.000000, 107.000000)">
                    <path d="M2,1 L7.26197965,1 C10.1481376,1 12.0205196,2.49347258 11.9998303,4.98146214 C11.979141,7.4694517 10.0722768,8.96631854 7.26197965,8.96631854 L3.66548897,8.96631854 L3.66548897,14 L2,14 L2,1 Z M7.26197965,7.47284595 C9.17229206,7.47284595 10.313652,6.49530026 10.313652,4.98146214 C10.313652,3.46762402 9.16194741,2.48328982 7.26197965,2.48328982 L3.66548897,2.48328982 L3.66548897,7.47284595 L7.26197965,7.47284595 Z" id="Shape" fill="#FFFFFF"></path>
                    <polygon id="Path" fill="#FFFFFF" points="14 0 16 0 16 14 14 14"></polygon>
                    <path d="M18,11.3390119 C18,9.69335605 19.3540984,8.47018739 22.0262295,8.15672913 L24.5180328,7.84327087 L24.5180328,7.46166951 C24.5180328,6.2044293 23.6459016,5.39011925 22.1672131,5.39011925 C20.8131148,5.39011925 19.9245902,6.07155026 19.9409836,7.24020443 L18.4491803,7.24020443 C18.4491803,5.26064736 19.9278689,4 22.1901639,4 C24.5213115,4 26,5.36286201 26,7.49914821 L26,13.7001704 L24.5213115,13.7001704 L24.5213115,12.3373083 L24.3606557,12.3373083 C23.704918,13.4105622 22.6688525,14 21.2262295,14 C19.2852459,13.9931857 18,12.9403748 18,11.3390119 Z M24.5180328,9.97614991 L24.5180328,9.14480409 L22.0262295,9.44122658 C20.1901639,9.68313458 19.4786885,10.4224872 19.4786885,11.2913118 C19.4786885,12.1601363 20.2262295,12.7189097 21.4459016,12.7189097 C23.2754098,12.7189097 24.5213115,11.5502555 24.5213115,9.97614991 L24.5180328,9.97614991 Z" id="Shape" fill="#FFFFFF"></path>
                    <path d="M28,4.36195509 L29.6171315,4.36195509 L29.6171315,5.67910773 L29.8143426,5.67910773 C30.4726155,4.62532703 31.6476478,3.98779364 32.9087649,4.00017717 C35.4187251,4.00017717 37,5.79501716 37,8.23614005 L37,14 L35.3828685,14 L35.3828685,8.23614005 C35.3828685,6.613408 34.3896414,5.42621443 32.6972112,5.42621443 C31.8905398,5.413077 31.1118311,5.71563102 30.5336616,6.26682481 C29.9554921,6.8180186 29.6256129,7.57232904 29.6171315,8.36258671 L29.6171315,13.982438 L28,13.982438 L28,4.36195509 Z" id="Path" fill="#FFFFFF"></path>
                    <path d="M53,9.04218483 C53,11.9746403 50.8994184,14.1048525 48.1659254,14.1048525 C46.6606226,14.1048525 45.398221,13.4562302 44.7105713,12.3433309 L44.5429353,12.3433309 L44.5429353,18 L43,18 L43,4.36869056 L44.5429353,4.36869056 L44.5429353,5.7990734 L44.7105713,5.7990734 C45.3947999,4.66569129 46.6058844,4 48.131714,4 C50.8788915,4 53,6.11314314 53,9.04218483 Z M44.4881971,9.04218483 C44.4881971,11.0904657 45.9558673,12.7154353 47.9811837,12.7154353 C50.0065002,12.7154353 51.4570647,11.1007071 51.4570647,9.04218483 C51.4570647,6.98366252 49.9893945,5.38941722 47.9811837,5.38941722 C45.972973,5.38941722 44.4881971,6.98366252 44.4881971,9.04218483 Z" id="Shape" fill="#FFFFFF"></path>
                    <path d="M55,8.9915512 C55,6.07502535 57.0686141,4 60,4 C62.9313859,4 65,6.07502535 65,8.9915512 C65,11.9080771 62.9177989,14 60,14 C57.0822011,14 55,11.9283542 55,8.9915512 Z M63.4714674,8.9915512 C63.4714674,6.89962825 62.0108696,5.37546468 60,5.37546468 C57.9891304,5.37546468 56.5319293,6.90300777 56.5319293,8.9915512 C56.5319293,11.0800946 57.9721467,12.6279148 60,12.6279148 C62.0278533,12.6279148 63.4714674,11.1037513 63.4714674,8.9915512 Z" id="Shape" fill="#FFFFFF"></path>
                    <path d="M75,13.6586498 L73.3789936,13.6586498 L73.3789936,12.3396426 L73.1849042,12.3396426 C72.5224356,13.3825019 71.3521725,14.0117762 70.0974441,13.999833 C67.5814696,13.999833 66,12.2411568 66,9.75790594 L66,4.0070347 L67.6174121,4.0070347 L67.6174121,9.75790594 C67.6174121,11.4040269 68.5950479,12.5717879 70.2951278,12.5717879 C71.104578,12.5868561 71.8864498,12.283911 72.4659691,11.7306707 C73.0454885,11.1774304 73.3743325,10.4200265 73.3789936,9.6277639 L73.3789936,4 L75,4 L75,13.6586498 Z" id="Path" fill="#FFFFFF"></path>
                    <path d="M77,4.17595503 L78.411161,4.17595503 L78.411161,5.50062582 L78.568313,5.50062582 C79.0531182,4.56313653 79.9527288,3.98987225 80.9223861,4.00052566 C81.2942597,3.99236511 81.662874,4.07931593 82,4.25471924 L82,5.75123921 C81.5850628,5.56350439 81.1423637,5.46393853 80.6946761,5.45766352 C79.370109,5.45766352 78.4496472,6.78233431 78.4496472,8.72637819 L78.4496472,14 L77.0032072,14 L77,4.17595503 Z" id="Path" fill="#FFFFFF"></path>
                    <path d="M97,13.6586498 L95.3757503,13.6586498 L95.3757503,12.3396426 L95.1992797,12.3396426 C94.5354856,13.3825019 93.3628811,14.0117762 92.1056423,13.999833 C89.5846339,13.999833 88,12.2411568 88,9.75790594 L88,4.0070347 L89.6242497,4.0070347 L89.6242497,9.75790594 C89.6242497,11.4040269 90.6002401,12.5717879 92.3037215,12.5717879 C93.1147912,12.5868561 93.8982274,12.283911 94.4789063,11.7306707 C95.0595851,11.1774304 95.389087,10.4200265 95.3937575,9.6277639 L95.3937575,4 L97,4 L97,13.6586498 Z" id="Path" fill="#FFFFFF"></path>
                    <path d="M99,4.36195509 L100.614189,4.36195509 L100.614189,5.67910773 L100.811479,5.67910773 C101.470014,4.62532703 102.645514,3.98779364 103.907134,4.00017717 C106.418095,4.00017717 108,5.79501716 108,8.23614005 L108,14 L106.382224,14 L106.382224,8.23614005 C106.382224,6.613408 105.388601,5.42621443 103.695496,5.42621443 C102.888503,5.413077 102.109484,5.71563102 101.531084,6.26682481 C100.952684,6.8180186 100.622674,7.57232904 100.614189,8.36258671 L100.614189,13.982438 L99,13.982438 L99,4.36195509 Z" id="Path" fill="#FFFFFF"></path>
                    <path d="M110,8.88175676 C110,6.05405405 112.100173,4 115.025907,4 C117.951641,4 120,6.05405405 120,8.89864865 C120,9.08108108 120,9.30405405 119.979275,9.50337838 L111.592401,9.50337838 C111.731894,11.3039486 113.294445,12.6789161 115.139896,12.625 C116.478993,12.6565927 117.727079,11.9644422 118.386874,10.8243243 L119.678756,11.4695946 C118.911917,13.0472973 117.202073,14 115.1019,14 C112.138169,13.9966216 110,11.8547297 110,8.88175676 Z M118.366149,8.16554054 C118.131274,6.51555906 116.655318,5.30870925 114.953368,5.375 C113.27082,5.32366659 111.824287,6.53214486 111.613126,8.16554054 L118.366149,8.16554054 Z" id="Shape" fill="#FFFFFF"></path>
                    <path d="M0,35.6527676 C0,29.9414777 4.19510514,25.7868812 10.037918,25.7868812 C15.8048949,25.7868812 20,29.9414777 20,35.6869056 C20,36.05901 20,36.5028042 19.962082,36.9090466 L3.21957946,36.9090466 C3.67114788,40.6949525 6.442606,43.214338 10.2619786,43.214338 C13.1092727,43.214338 15.5808342,41.8078517 16.7390555,39.5820532 L19.3243709,40.8792977 C17.824888,44.0677883 14.4191658,46 10.2240607,46 C4.30541193,46 0,41.6610583 0,35.6527676 Z M16.7045846,34.2053158 C16.1771803,30.8324799 13.4815581,28.5691295 9.92416408,28.5691295 C6.36677008,28.5691295 3.79179593,30.8324799 3.25749741,34.2053158 L16.7045846,34.2053158 Z M8.23853844,23.2811509 L12.2819717,18 L15.8048949,18 L11.4960358,23.2640819 L8.23853844,23.2811509 Z" id="Shape" fill="#FFFFFF"></path>
                    <path d="M22.0002556,35.9746835 C22.0002556,30.1822785 26.0926663,26 31.7843706,26 C36.3973222,26 40.2294624,28.8624473 40.938357,32.8219409 L37.9246989,33.2236287 C37.2397766,30.5468354 34.6884411,28.7510549 31.8220413,28.7510549 C27.9899011,28.7510549 25.0515844,31.721519 25.0892551,35.9746835 C25.1269259,40.2278481 27.9522303,43.235443 31.7843706,43.235443 C34.7226872,43.235443 37.2158043,41.4396624 37.9486712,38.8472574 L41,39.2489451 C40.1438471,43.1746835 36.2740362,46 31.7706721,46 C26.0926663,45.9864979 21.9625849,41.7704641 22.0002556,35.9746835 Z" id="Path" fill="#FFFFFF"></path>
                    <path d="M44,35.9814221 C44,30.147948 48.1338315,26 54,26 C59.8661685,26 64,30.147948 64,35.9814221 C64,41.8148961 59.8288043,46 54,46 C48.1711957,46 44,41.8554298 44,35.9814221 Z M60.9361413,35.9814221 C60.9361413,31.799696 58.0217391,28.7529134 54,28.7529134 C49.9782609,28.7529134 47.060462,31.7929404 47.060462,35.9814221 C47.060462,40.1699037 49.9408967,43.2470866 54,43.2470866 C58.0591033,43.2470866 60.9361413,40.2036818 60.9361413,35.9814221 Z" id="Shape" fill="#FFFFFF"></path>
                    <path d="M67,26.7241084 L70.0496313,26.7241084 L70.0496313,29.3588667 L70.415587,29.3588667 C71.6609786,27.2487776 73.8849388,25.9731736 76.270879,26.0004281 C80.9808651,26.0004281 84,29.5872124 84,34.4738108 L84,46 L80.9503687,46 L80.9503687,34.4738108 C80.9503687,31.2277886 79.0731513,28.8529931 75.86765,28.8529931 C74.341281,28.8276552 72.8683328,29.435206 71.7759247,30.5407177 C70.6835166,31.6462293 70.0620817,33.158184 70.0496313,34.7407996 L70.0496313,45.9824349 L67,45.9824349 L67,26.7241084 Z" id="Path" fill="#FFFFFF"></path>
                    <path d="M88,35.9814221 C88,30.147948 92.1304348,26 98,26 C103.869565,26 108,30.147948 108,35.9814221 C108,41.8148961 103.828804,46 98,46 C92.1711957,46 88,41.8554298 88,35.9814221 Z M104.936141,35.9814221 C104.936141,31.799696 102.021739,28.7529134 98,28.7529134 C93.9782609,28.7529134 91.060462,31.7929404 91.060462,35.9814221 C91.060462,40.1699037 93.9408967,43.2470866 98,43.2470866 C102.059103,43.2470866 104.936141,40.2036818 104.936141,35.9814221 Z" id="Shape" fill="#FFFFFF"></path>
                    <path d="M111,25.7617096 L113.95717,25.7617096 L113.95717,28.3141928 L114.328092,28.3141928 C115.393294,26.2421329 117.497386,24.9617153 119.772823,25.0008732 C122.396503,25.0008732 124.798991,26.4874843 125.870922,28.7349318 L126.211218,28.7349318 C127.475958,26.4132187 129.875383,24.9939973 132.459047,25.039441 C136.859071,25.039441 140,28.5455992 140,33.5348625 L140,45 L136.937339,45 L136.937339,33.4962947 C136.937339,30.2215429 134.895564,27.8583922 132.091528,27.8583922 C129.096926,27.8583922 126.987092,30.2215429 126.987092,33.4962947 L126.987092,45 L123.924431,45 L123.924431,33.4962947 C123.924431,30.1058397 122.005163,27.8583922 119.119456,27.8583922 C116.087421,27.8583922 114.093288,30.1058397 114.093288,33.4962947 L114.093288,45 L111.030627,45 L111,25.7617096 Z" id="Path" fill="#FFFFFF"></path>
                    <path d="M144.001477,20.184263 C143.987578,19.588508 144.197638,19.0135181 144.580593,18.5990654 C144.963549,18.1846127 145.484329,17.9686537 146.016338,18.0036851 C146.544663,17.9711114 147.060782,18.1891651 147.437861,18.6042619 C147.814941,19.0193586 148.018025,19.5930159 147.997206,20.184263 C148.026233,20.7845294 147.828055,21.3707503 147.451184,21.7994236 C147.074314,22.2280969 146.553538,22.459654 146.016338,22.4374117 C145.475775,22.4609906 144.950945,22.2311866 144.568418,21.8034208 C144.185892,21.3756549 143.980391,20.7887556 144.001477,20.184263 Z M144.604081,26.0383026 L147.385331,26.0383026 L147.385331,45 L144.604081,45 L144.604081,26.0383026 Z" id="Shape" fill="#FFFFFF"></path>
                    <path d="M151,35.7618645 C151,30.1107921 155.203074,26 161.056985,26 C166.834916,26 171,30.1107921 171,35.7956426 C171,36.1638237 171,36.6029387 170.96201,37.0048978 L154.191159,37.0048978 C154.640131,40.7508867 157.416854,43.2437088 161.281471,43.2437088 C164.096184,43.2437088 166.57244,41.852052 167.770851,39.6497213 L170.361078,40.9332883 C168.82421,44.0881608 165.408565,46 161.205491,46 C155.279054,46 151,41.7068063 151,35.7618645 Z M167.732861,34.329674 C167.173372,30.9923999 164.507166,28.7529134 160.905025,28.7529134 C157.416854,28.7529134 154.754101,30.9923999 154.225695,34.329674 L167.732861,34.329674 Z" id="Shape" fill="#FFFFFF"></path>
                    <polygon id="Path" fill="#FFFFFF" points="1 57 4.21833181 57 10.3066911 73.5236967 10.6549954 73.5236967 16.7851512 57.0069267 20 57.0069267 12.7448213 76 8.26562786 76"></polygon>
                    <path d="M20,66.7584848 C20,61.1074135 24.2030737,57 30.056985,57 C35.8349162,57 40,61.1074135 40,66.7956407 C40,67.1638217 40,67.6029366 39.96201,68.0082734 L23.1877051,68.0082734 C23.6401312,71.7508837 26.4168537,74.2470832 30.2814712,74.2470832 C33.0961837,74.2470832 35.57244,72.8520489 36.7708513,70.6497186 L39.3610775,71.9332853 C37.8207563,75.091535 34.408565,77 30.2054913,77 C24.2617855,77.0033738 20,72.710181 20,66.7584848 Z M36.7328613,65.3296724 C36.1699188,61.9890211 33.5071663,59.749535 29.905025,59.749535 C26.4168537,59.749535 23.7506476,61.9890211 23.225695,65.3296724 L36.7328613,65.3296724 Z" id="Shape" fill="#FFFFFF"></path>
                    <path d="M43,57.3706985 L46.10157,57.3706985 L46.10157,59.8792725 L46.4540211,59.8792725 C47.335149,58.1819965 49.4815764,57.0006924 51.6244793,57.0006924 C52.4434396,56.9879412 53.2550234,57.1514632 54,57.4793242 L54,60.3273533 C53.0860705,59.974074 52.1122292,59.7864874 51.1275232,59.7740414 C48.2162768,59.7740414 46.1932073,62.2826153 46.1932073,65.9690988 L46.1932073,76 L43.0211471,76 L43,57.3706985 Z" id="Path" fill="#FFFFFF"></path>
                    <path d="M58.9772175,71.3499464 L58.9772175,59.6666667 L56,59.6666667 L56,57.1690782 L58.9772175,57.1690782 L59.6688943,51 L62.0279465,51 L61.9911908,57.1690782 L66.7092953,57.1690782 L66.7092953,59.6666667 L61.9911908,59.6666667 L61.9911908,71.2454448 C61.9911908,73.0637728 63.0804982,74.3491426 64.8213852,74.3491426 C65.5601658,74.3227507 66.292515,74.1962878 67,73.9729368 L67,76.5088424 C66.0354329,76.8210451 65.0326882,76.9864699 64.0227825,77 C60.9386391,77 58.9772175,74.7288317 58.9772175,71.3499464 Z" id="Path" fill="#FFFFFF"></path>
                    <path d="M68,66.7584848 C68,61.1074135 72.2030737,57 78.056985,57 C83.8349162,57 88,61.1074135 88,66.7956407 C88,67.1638217 88,67.6029366 87.96201,68.0082734 L71.1877051,68.0082734 C71.6401312,71.7508837 74.4168537,74.2470832 78.2814712,74.2470832 C81.0961837,74.2470832 83.57244,72.8520489 84.7708513,70.6497186 L87.3610775,71.9332853 C85.82421,75.091535 82.408565,77 78.2054913,77 C72.2790537,77.0033738 68,72.710181 68,66.7584848 Z M84.736315,65.3296724 C84.1733725,61.9890211 81.5071663,59.749535 77.905025,59.749535 C74.4168537,59.749535 71.7506476,61.9890211 71.225695,65.3296724 L84.736315,65.3296724 Z" id="Shape" fill="#FFFFFF"></path>
                    <path d="M232.118072,5.55492946 C231.354153,4.9169607 230.487002,4.91013751 229.557912,5.13189135 C227.799523,5.44234674 226.041134,5.7937413 224.296509,6.20654461 C219.033401,7.42667967 213.912934,9.18748365 209.018136,11.460405 C201.227543,14.919765 193.98408,19.8836396 188.760529,26.6624841 C180.250751,37.439721 177.883291,51.8605443 181.909349,64.8723777 L182.477126,64.7870877 C182.133019,48.6195265 186.661473,35.5735771 199.063107,24.7281082 C207.59009,17.1884774 218.278069,12.6237598 228.866256,8.66289491 C217.197571,16.5641551 207.720851,28.1874682 203.74641,41.7553921 C202.025872,39.5787928 199.61712,36.566352 197.875936,34.3692832 C196.943405,36.3275402 195.322659,39.517384 194.727353,41.5541078 C190.181693,56.2239777 190.484507,72.1049647 193.69503,87 C193.94967,81.6506149 194.183663,76.4001661 194.668854,71.1087782 C202.745057,71.3953524 211.151603,68.5910191 216.612588,62.402381 C219.623529,59.0180761 221.302773,54.7160515 222.428005,50.4072037 C224.788582,41.806566 223.763142,32.7624207 224.585559,24.0457887 C225.094838,18.3006583 226.880756,13.5073636 231.467709,9.73754817 C231.858902,9.47226107 232.21698,9.16191266 232.534442,8.81300521 C233.290397,7.78968906 233.107559,6.35898972 232.118072,5.55492946 Z M230.294302,7.2300239 C230.328713,7.20614272 230.332154,7.18908473 230.363123,7.18226154 L230.235804,7.31190225 C230.24948,7.28257271 230.266821,7.25506422 230.28742,7.2300239 L230.294302,7.2300239 Z M225.411417,14.0839236 C224.707224,15.5184128 224.163731,17.0250996 223.790671,18.5769977 C222.569089,23.7250985 222.070133,29.0130749 221.017164,34.1543525 C220.287656,37.9923999 219.427388,41.7212761 218.470769,45.4126247 C217.730938,48.2306044 216.915403,51.065642 215.951902,53.8085665 C212.87214,62.8117727 203.694794,67.8677604 194.768645,70.0477713 C195.573857,61.7166499 196.805762,53.3616472 199.345275,45.3785088 C201.464977,48.1077869 205.009284,52.5428638 207.177161,55.2926115 C207.906669,49.4110172 208.715322,42.8505149 210.962344,37.3134919 C214.372449,28.2727582 219.81967,20.1463326 226.103073,12.7875165 C225.858757,13.2173778 225.624763,13.6438275 225.411417,14.0839236 Z" id="Shape" fill="#40BA8D"></path>
                </g>
            </g>
        </g>
    </g>
</svg>